Coordinates
version=1
nRows=27
nColumns=19
inDegrees=yes

Units are S.I. units (second, meters, Newtons, ...)
If the header above contains a line with 'inDegrees', this indicates whether rotational values are in degrees (yes) or radians (no).

endheader
time	pelvis_tilt	pelvis_list	pelvis_rotation	pelvis_tx	pelvis_ty	pelvis_tz	hip_flexion_r	hip_adduction_r	hip_rotation_r	knee_angle_r	knee_angle_r_beta	ankle_angle_r	hip_flexion_l	hip_adduction_l	hip_rotation_l	knee_angle_l	knee_angle_l_beta	ankle_angle_l
     14.98000000	     -4.50657881	     -6.46445273	      0.44331560	      2.41853907	      1.03905071	      1.02704424	     31.34417883	      8.77135943	     -3.28461049	     17.76956121	      0.31013735	     -6.17629060	    -17.07555104	     -9.79481910	     -5.04580847	     66.76805643	      1.16532242	    -23.63369254
     14.98666667	     -4.34763444	     -7.00012579	      0.09545659	      2.41694529	      1.03560300	      1.02720517	     31.17984599	      9.56153120	     -3.96484780	     19.03365661	      0.33219998	     -5.80122753	    -15.60901620	    -10.13109394	     -4.04413137	     71.49771806	      1.24787059	    -25.25662522
     14.99333333	     -4.84028768	     -7.34926827	     -0.06960900	      2.41514119	      1.03120270	      1.02694995	     31.86582569	      9.96054215	     -5.02155996	     21.01156148	      0.36672093	     -5.03341512	    -13.18181014	    -10.24308125	     -2.65858355	     76.29000324	      1.33151174	    -26.93538102
     15.00000000	     -5.18489348	     -7.64253968	     -0.40403134	      2.41308692	      1.02660230	      1.02654956	     32.44088363	     10.33814107	     -5.97626734	     23.50113337	      0.41017216	     -3.83626678	    -10.89251101	    -10.22576060	     -1.53349893	     80.88127245	      1.41164451	    -28.55771473
     15.00666667	     -5.61466695	     -7.82740766	     -0.74989559	      2.41086730	      1.02160962	      1.02587698	     33.09949771	     10.56924921	     -6.82856087	     26.34754554	      0.45985142	     -2.20241613	     -8.42149024	    -10.08687467	     -0.46956544	     85.31743797	      1.48907020	    -29.90244951
     15.01333333	     -5.98952818	     -7.95595541	     -1.03214480	      2.40852953	      1.01649746	      1.02489609	     33.60993337	     10.70523037	     -7.52348562	     29.32997051	      0.51190455	     -0.17486631	     -5.91273843	     -9.93671603	      0.53857379	     89.56266789	      1.56316344	    -30.88653912
     15.02000000	     -5.36231308	     -8.40664591	     -1.62822834	      2.40617341	      1.01235051	      1.02407626	     32.81979188	     11.40984201	     -7.70199164	     32.16329477	      0.56135539	      2.15501048	     -4.66069094	    -10.26046069	      0.80285047	     93.37566109	      1.62971273	    -31.40871653
     15.02666667	     -6.78001873	     -7.93495652	     -1.72206934	      2.40346423	      1.00607473	      1.02277776	     34.27702194	     10.88504213	     -7.86614664	     35.26734984	      0.61553137	      4.68689049	     -0.61540576	     -9.56652637	      2.08760989	     97.40355561	      1.70001275	    -31.44057293
     15.03333333	     -7.07063431	     -7.90447566	     -2.08511707	      2.40083817	      1.00119467	      1.02177424	     34.21385318	     11.07262074	     -7.56453599	     37.93704324	      0.66212631	      7.38212255	      2.04080669	     -9.54490489	      2.65021835	    100.94261279	      1.76178095	    -30.99269882
     15.04000000	     -7.22260476	     -7.91819436	     -2.32770556	      2.39814903	      0.99685269	      1.02070296	     33.78793970	     11.28918234	     -7.16301712	     40.27807954	      0.70298510	     10.10249938	      4.68114896	     -9.67816692	      3.24653680	    104.21097539	      1.81882464	    -30.15069935
     15.04666667	     -6.59563292	     -8.13091267	     -2.62645192	      2.39556898	      0.99392450	      1.01982666	     32.22486627	     11.81285880	     -6.50093296	     42.13985335	      0.73547919	     12.84114886	      6.45802905	    -10.16793631	      3.58173453	    107.03592286	      1.86812927	    -29.01608874
     15.05333333	     -7.23311749	     -8.00029690	     -2.74501644	      2.39293041	      0.99002117	      1.01889620	     31.90994793	     11.89208288	     -5.86348942	     43.79823626	      0.76442343	     15.34305199	      9.92966970	    -10.27074934	      4.32283087	    109.78740599	      1.91615171	    -27.47727632
     15.06000000	     -6.72820401	     -8.02901621	     -2.92195573	      2.39046583	      0.98816241	      1.01819658	     30.04651402	     12.20023179	     -5.01209966	     44.91963500	      0.78399553	     17.70679404	     12.08610610	    -10.62735043	      4.74361091	    111.97913422	      1.95440459	    -25.80488567
     15.06666667	     -6.80672993	     -7.98761257	     -2.92646832	      2.38819365	      0.98620232	      1.01751064	     28.62820872	     12.33160081	     -4.33001170	     45.67651448	      0.79720557	     19.80408226	     15.07106685	    -10.88751075	      5.41835359	    113.91875312	      1.98825732	    -24.05641287
     15.07333333	     -6.36306778	     -7.79769003	     -3.04627282	      2.38606911	      0.98558941	      1.01720495	     26.40967807	     12.38943657	     -3.33571095	     46.04581674	      0.80365111	     21.61054212	     17.44663758	    -10.99677891	      5.78688713	    115.35811611	      2.01337894	    -22.42727528
     15.08000000	     -6.08441149	     -7.52022512	     -3.11966730	      2.38448607	      0.98532354	      1.01704409	     24.14865560	     12.26367146	     -2.50195231	     46.03906192	      0.80353322	     23.20362138	     19.96980430	    -11.01055270	      6.09071436	    116.41276302	      2.03178601	    -20.46831936
     15.08666667	     -5.88517462	     -7.14957642	     -3.14205500	      2.38303538	      0.98555481	      1.01712519	     21.81594814	     12.02422789	     -1.65321293	     45.69918738	      0.79760129	     24.33398414	     22.60546757	    -10.88052093	      6.35558601	    117.09723564	      2.04373231	    -18.67134640
     15.09333333	     -5.80290618	     -6.68608657	     -3.12475038	      2.38199834	      0.98614155	      1.01747694	     19.45249712	     11.63889444	     -0.92191277	     45.06118120	      0.78646598	     25.11662681	     25.30621938	    -10.64596867	      6.50597774	    117.39881163	      2.04899580	    -16.84661512
     15.10000000	     -5.59856689	     -6.01597429	     -2.72710119	      2.38127401	      0.98730909	      1.01759354	     16.86504547	     10.84637024	     -0.68478695	     44.15490160	      0.77064841	     25.56404659	     27.86488202	     -9.96074696	      6.75547761	    117.31446932	      2.04752375	    -14.96352861
     15.10666667	     -5.81627014	     -5.41775209	     -2.72031198	      2.38103237	      0.98838603	      1.01871856	     14.56163664	     10.34315533	     -0.01307556	     42.97639577	      0.75007961	     25.49975165	     30.66182291	     -9.63437321	      6.57110509	    116.88190783	      2.03997413	    -13.22068401
     15.11333333	     -6.15132580	     -4.73939395	     -2.68118460	      2.38114791	      0.98969105	      1.01997838	     12.30257122	      9.70162714	      0.49288812	     41.58612725	      0.72581484	     24.99842295	     33.44242142	     -9.21085170	      6.22475399	    116.10026039	      2.02633181	    -11.45611437
     15.12000000	     -5.50899814	     -3.45416152	     -2.42135253	      2.38175889	      0.99279095	      1.02117859	      8.89284874	      8.29158821	      0.82377545	     39.93599853	      0.69701466	     24.12023473	     34.84815829	     -8.00772779	      5.41090067	    114.74872065	      2.00274299	     -9.58727154
     15.12666667	     -6.17409204	     -2.72435802	     -2.37149415	      2.38267822	      0.99444840	      1.02281488	      6.86287533	      7.58906329	      1.18975755	     38.14870106	      0.66582044	     22.51943516	     37.63919546	     -7.59945522	      4.73036708	    113.29939298	      1.97744745	     -7.99832631
     15.13333333	     -5.77714723	     -1.17744370	     -2.31667941	      2.38431229	      0.99805376	      1.02472862	      3.62671813	      5.89033322	      1.40305161	     36.14520634	      0.63085286	     20.57958906	     38.82564976	     -6.43864432	      3.23423784	    111.21426806	      1.94105515	     -6.41541222
     15.14000000	     -5.96596835	      0.07856709	     -2.26514257	      2.38625425	      1.00110109	      1.02667423	      1.02647754	      4.52390130	      1.47669340	     34.01578734	      0.59368749	     18.02200335	     40.53946432	     -5.64611296	      1.81824663	    108.94099294	      1.90137902	     -5.02794470
     15.14666667	     -6.98618740	      0.80482712	     -2.18272657	      2.38822560	      1.00316731	      1.02847293	     -0.58430064	      3.75178700	      1.43878252	     31.92896284	      0.55726553	     14.81699284	     43.11726779	     -5.41250403	      0.69377532	    106.58603498	      1.86027725	     -3.85819212
     15.15333333	     -6.41592051	      2.65694854	     -2.10373443	      2.39121507	      1.00787295	      1.03048683	     -3.99199724	      1.62767416	      0.96128666	     29.51869343	      0.51519839	     11.34660820	     43.38813842	     -4.15417703	     -1.46280275	    103.48123982	      1.80608835	     -2.72605545
